<svg width="20" height="20" viewBox="0 0 20 20" fill="none" xmlns="http://www.w3.org/2000/svg">
<path d="M19.8716 5.8572C19.8249 4.79865 19.6537 4.07091 19.4084 3.44032C19.1554 2.77095 18.7661 2.17167 18.2562 1.67349C17.7579 1.16755 17.1545 0.774413 16.4928 0.525397C15.8584 0.280181 15.1343 0.109002 14.0756 0.06233C13.0089 0.0117059 12.6703 0 9.96498 0C7.25964 0 6.92102 0.0117059 5.85832 0.0583774C4.79957 0.105049 4.07169 0.276381 3.44112 0.521444C2.77148 0.774413 2.17208 1.1636 1.67381 1.67349C1.16777 2.17167 0.774713 2.7749 0.525497 3.43651C0.280235 4.07091 0.109022 4.7947 0.0623419 5.85325C0.0117081 6.9197 0 7.25826 0 9.96308C0 12.6679 0.0117081 13.0065 0.0583886 14.069C0.105069 15.1275 0.276433 15.8552 0.521696 16.4858C0.774713 17.1552 1.16777 17.7545 1.67381 18.2527C2.17208 18.7586 2.77543 19.1517 3.43717 19.4008C4.07169 19.646 4.79562 19.8172 5.85452 19.8638C6.91707 19.9107 7.25584 19.9222 9.96118 19.9222C12.6665 19.9222 13.0051 19.9107 14.0678 19.8638C15.1266 19.8172 15.8545 19.646 16.485 19.4008C17.8242 18.8831 18.8829 17.8246 19.4007 16.4858C19.6458 15.8514 19.8171 15.1275 19.8638 14.069C19.9105 13.0065 19.9222 12.6679 19.9222 9.96308C19.9222 7.25826 19.9183 6.9197 19.8716 5.8572ZM18.0772 13.9911C18.0343 14.9641 17.8709 15.4895 17.7346 15.8397C17.3998 16.7076 16.7108 17.3965 15.8428 17.7312C15.4924 17.8674 14.9631 18.0309 13.9938 18.0736C12.9428 18.1204 12.6276 18.132 9.96893 18.132C7.31028 18.132 6.99112 18.1204 5.94393 18.0736C4.97078 18.0309 4.44529 17.8674 4.09495 17.7312C3.66297 17.5716 3.26976 17.3186 2.9506 16.9878C2.61973 16.6648 2.36671 16.2756 2.20706 15.8437C2.07082 15.4934 1.90736 14.9641 1.86463 13.9951C1.8178 12.9443 1.80624 12.629 1.80624 9.97083C1.80624 7.31268 1.8178 6.99358 1.86463 5.94674C1.90736 4.97379 2.07082 4.44839 2.20706 4.09813C2.36671 3.66607 2.61973 3.27309 2.95455 2.95384C3.27751 2.62303 3.66677 2.37006 4.09891 2.21059C4.44924 2.07437 4.97869 1.91095 5.94788 1.86808C6.99887 1.82141 7.31423 1.8097 9.97274 1.8097C12.6353 1.8097 12.9506 1.82141 13.9977 1.86808C14.9709 1.91095 15.4964 2.07437 15.8467 2.21059C16.2787 2.37006 16.6719 2.62303 16.9911 2.95384C17.3219 3.27689 17.575 3.66607 17.7346 4.09813C17.8709 4.44839 18.0343 4.97759 18.0772 5.94674C18.1239 6.99754 18.1356 7.31268 18.1356 9.97083C18.1356 12.629 18.1239 12.9403 18.0772 13.9911Z" fill="#4F4F4F"/>
<path d="M9.96248 4.8457C7.13657 4.8457 4.84375 7.13793 4.84375 9.96346C4.84375 12.789 7.13657 15.0812 9.96248 15.0812C12.7885 15.0812 15.0812 12.789 15.0812 9.96346C15.0812 7.13793 12.7885 4.8457 9.96248 4.8457ZM9.96248 13.2832C8.12917 13.2832 6.64209 11.7966 6.64209 9.96346C6.64209 8.13034 8.12917 6.6437 9.96248 6.6437C11.7959 6.6437 13.2829 8.13034 13.2829 9.96346C13.2829 11.7966 11.7959 13.2832 9.96248 13.2832V13.2832Z" fill="#4F4F4F"/>
<path d="M16.48 4.64398C16.48 5.30377 15.9449 5.83874 15.2848 5.83874C14.6249 5.83874 14.0898 5.30377 14.0898 4.64398C14.0898 3.98404 14.6249 3.44922 15.2848 3.44922C15.9449 3.44922 16.48 3.98404 16.48 4.64398V4.64398Z" fill="#4F4F4F"/>
</svg>
