<svg width="21" height="20" viewBox="0 0 21 20" fill="none" xmlns="http://www.w3.org/2000/svg">
<path d="M2.49651 0C0.98697 0 0 1.00358 0 2.32266C0 3.6126 0.957568 4.6448 2.43859 4.6448H2.46724C4.00631 4.6448 4.96413 3.6126 4.96413 2.32266C4.93535 1.00358 4.00631 0 2.49651 0V0Z" fill="#4F4F4F"/>
<path d="M0.261719 6.48047H4.67475V19.9226H0.261719V6.48047Z" fill="#4F4F4F"/>
<path d="M15.5074 6.16602C13.1267 6.16602 11.5303 8.43093 11.5303 8.43093V6.48151H7.11719V19.9237H11.5301V12.4171C11.5301 12.0152 11.5589 11.614 11.6755 11.3266C11.9945 10.5241 12.7205 9.69277 13.9397 9.69277C15.5365 9.69277 16.1752 10.9255 16.1752 12.7326V19.9237H20.5878V12.2162C20.5878 8.08733 18.4106 6.16602 15.5074 6.16602V6.16602Z" fill="#4F4F4F"/>
</svg>
