<svg width="25" height="20" viewBox="0 0 25 20" fill="none" xmlns="http://www.w3.org/2000/svg">
<path d="M22.4312 4.98769C23.4479 4.27692 24.3031 3.38974 25 2.36821V2.36718C24.0698 2.76821 23.0802 3.03487 22.0469 3.1641C23.1094 2.53949 23.9208 1.55795 24.3021 0.375385C23.3115 0.956923 22.2177 1.36718 21.0521 1.59692C20.1115 0.610256 18.7708 0 17.3083 0C14.4708 0 12.1865 2.26769 12.1865 5.04718C12.1865 5.44718 12.2208 5.8318 12.3052 6.19795C8.04479 5.99282 4.27396 3.98256 1.74062 0.918974C1.29896 1.67487 1.03854 2.53949 1.03854 3.46974C1.03854 5.21744 1.95208 6.76615 3.31562 7.66359C2.49167 7.64821 1.68437 7.41231 1 7.04205V7.09744C1 9.54974 2.77604 11.5867 5.10625 12.0564C4.68854 12.1692 4.23437 12.2226 3.7625 12.2226C3.43437 12.2226 3.10312 12.2041 2.79271 12.1364C3.45625 14.1344 5.34167 15.6041 7.58125 15.6523C5.8375 16.9949 3.62292 17.8041 1.22604 17.8041C0.80625 17.8041 0.403125 17.7856 0 17.7354C2.27083 19.1764 4.96042 20 7.8625 20C16.9073 20 22.8021 12.5703 22.4312 4.98769V4.98769Z" fill="#4F4F4F"/>
</svg>
